<svg width="23" height="21" viewBox="0 0 23 21" fill="none" xmlns="http://www.w3.org/2000/svg">
<path d="M21.6288 16.3737C22.2473 15.2467 22.5777 13.9844 22.5906 12.699C22.6035 11.4135 22.2985 10.1448 21.7027 9.00574C21.1069 7.86663 20.2389 6.89243 19.1757 6.1698C18.1125 5.44717 16.8872 4.99852 15.6088 4.86374C15.2031 3.88631 14.6026 3.00167 13.8441 2.26368C13.0856 1.52568 12.1848 0.949772 11.1966 0.571C10.2084 0.192228 9.1534 0.0185186 8.09593 0.0604449C7.03845 0.102371 6.00056 0.359057 5.04545 0.814876C4.09033 1.2707 3.23797 1.91611 2.54023 2.71184C1.8425 3.50758 1.314 4.43697 0.986898 5.44346C0.659796 6.44995 0.540936 7.51248 0.637555 8.56637C0.734173 9.62026 1.04425 10.6435 1.54891 11.5737L0.908909 13.8237C0.851221 14.0289 0.849224 14.2457 0.903124 14.4519C0.957024 14.6581 1.06488 14.8463 1.21559 14.997C1.3663 15.1477 1.55444 15.2556 1.76065 15.3095C1.96687 15.3634 2.18371 15.3614 2.3889 15.3037L4.63889 14.6637C5.54419 15.1632 6.54051 15.4761 7.56887 15.5837C7.98544 16.6001 8.61202 17.5171 9.40756 18.2746C10.2031 19.0321 11.1497 19.613 12.1853 19.9793C13.2209 20.3456 14.3222 20.489 15.4171 20.4001C16.512 20.3113 17.5758 19.9921 18.5388 19.4636L20.7888 20.1036C20.9943 20.1648 21.2125 20.1693 21.4204 20.1167C21.6283 20.064 21.818 19.9562 21.9697 19.8045C22.1213 19.6529 22.2291 19.4631 22.2818 19.2553C22.3344 19.0474 22.3299 18.8292 22.2688 18.6237L21.6288 16.3737ZM4.71888 13.4137C4.66085 13.4131 4.60321 13.4233 4.54889 13.4437L2.0589 14.1537L2.7689 11.6637C2.79386 11.5857 2.80142 11.5032 2.79105 11.422C2.78069 11.3408 2.75264 11.2629 2.7089 11.1937C1.8906 9.81273 1.60449 8.18057 1.90426 6.60361C2.20404 5.02664 3.06909 3.61332 4.33703 2.62893C5.60497 1.64455 7.18861 1.15681 8.79067 1.25725C10.3927 1.3577 11.903 2.03944 13.0381 3.17449C14.1731 4.30954 14.8549 5.81986 14.9553 7.42191C15.0558 9.02397 14.568 10.6076 13.5837 11.8755C12.5993 13.1435 11.1859 14.0085 9.60898 14.3083C8.03201 14.6081 6.39985 14.322 5.01888 13.5037C4.92972 13.4452 4.82549 13.414 4.71888 13.4137V13.4137ZM20.4088 16.4637L21.1188 18.9536L18.6288 18.2437C18.5508 18.2187 18.4683 18.2111 18.3871 18.2215C18.3059 18.2319 18.228 18.2599 18.1588 18.3037C17.3806 18.7638 16.5163 19.0595 15.6194 19.1724C14.7224 19.2853 13.8118 19.2129 12.9439 18.9599C12.076 18.7068 11.2692 18.2784 10.5734 17.7011C9.87768 17.1238 9.30774 16.41 8.89886 15.6037C10.8736 15.4719 12.7247 14.5953 14.0779 13.1511C15.4311 11.7069 16.1856 9.80284 16.1888 7.82372C16.1866 7.25519 16.1229 6.68857 15.9988 6.13373C17.0427 6.3298 18.024 6.77454 18.8595 7.43029C19.6951 8.08604 20.3603 8.93348 20.7988 9.90085C21.2374 10.8682 21.4364 11.927 21.3789 12.9876C21.3215 14.0482 21.0093 15.0793 20.4688 15.9937C20.425 16.0629 20.397 16.1408 20.3866 16.222C20.3763 16.3032 20.3838 16.3857 20.4088 16.4637V16.4637Z" fill="#0D0D0D" fill-opacity="0.75"/>
</svg>
