<svg width="24" height="24" viewBox="0 0 24 24" fill="none" xmlns="http://www.w3.org/2000/svg">
<path d="M14.7024 12L22.944 3.77753C23.305 3.41662 23.5077 2.92711 23.5077 2.4167C23.5077 1.90629 23.305 1.41678 22.944 1.05586C22.5831 0.694948 22.0936 0.492187 21.5832 0.492188C21.0728 0.492188 20.5833 0.694948 20.2224 1.05586L11.9999 9.29753L3.77738 1.05586C3.41647 0.694948 2.92696 0.492187 2.41655 0.492188C1.90614 0.492188 1.41663 0.694948 1.05572 1.05586C0.694801 1.41678 0.492041 1.90629 0.492041 2.4167C0.492041 2.92711 0.694801 3.41662 1.05572 3.77753L9.29738 12L1.05572 20.2225C0.87607 20.4007 0.733482 20.6127 0.636175 20.8463C0.538868 21.0798 0.48877 21.3303 0.48877 21.5834C0.48877 21.8364 0.538868 22.0869 0.636175 22.3205C0.733482 22.554 0.87607 22.766 1.05572 22.9442C1.2339 23.1238 1.44588 23.2664 1.67944 23.3637C1.91301 23.461 2.16353 23.5111 2.41655 23.5111C2.66957 23.5111 2.92009 23.461 3.15366 23.3637C3.38722 23.2664 3.5992 23.1238 3.77738 22.9442L11.9999 14.7025L20.2224 22.9442C20.4006 23.1238 20.6125 23.2664 20.8461 23.3637C21.0797 23.461 21.3302 23.5111 21.5832 23.5111C21.8362 23.5111 22.0868 23.461 22.3203 23.3637C22.5539 23.2664 22.7659 23.1238 22.944 22.9442C23.1237 22.766 23.2663 22.554 23.3636 22.3205C23.4609 22.0869 23.511 21.8364 23.511 21.5834C23.511 21.3303 23.4609 21.0798 23.3636 20.8463C23.2663 20.6127 23.1237 20.4007 22.944 20.2225L14.7024 12Z" fill="#231F20"/>
</svg>
