<svg width="27" height="24" viewBox="0 0 27 24" fill="none" xmlns="http://www.w3.org/2000/svg">
<path d="M0.718752 8.24987C0.718077 7.24136 0.916347 6.24262 1.30221 5.31084C1.68807 4.37907 2.25395 3.53256 2.96743 2.81979C3.68091 2.10702 4.52799 1.542 5.46015 1.15707C6.39231 0.772136 7.39125 0.574865 8.39976 0.576549L18.6411 0.576549C22.8823 0.576549 26.3221 4.0266 26.3221 8.24987V23.6196H8.39976C4.15856 23.6196 0.718752 20.1695 0.718752 15.9462L0.718752 8.24987ZM23.7618 21.0592V8.24987C23.7584 6.89353 23.2176 5.59383 22.2578 4.63547C21.298 3.67711 19.9974 3.13823 18.6411 3.13688H8.39976C7.72747 3.1352 7.06147 3.26624 6.43994 3.5225C5.81842 3.77876 5.25359 4.1552 4.77786 4.63022C4.30212 5.10524 3.92484 5.6695 3.66765 6.29064C3.41046 6.91178 3.27841 7.57759 3.27909 8.24987V15.9462C3.28247 17.3026 3.8233 18.6023 4.7831 19.5606C5.7429 20.519 7.04342 21.0579 8.39976 21.0592H23.7618ZM16.0808 10.8179H18.6411V13.3782H16.0808V10.8179ZM8.39976 10.8179H10.9601V13.3782H8.39976V10.8179Z" fill="white"/>
</svg>
