<svg width="27" height="29" viewBox="0 0 27 29" fill="none" xmlns="http://www.w3.org/2000/svg">
<path d="M1.71926 21.2942C1.14202 20.296 0.693303 19.2288 0.383789 18.118C1.05741 17.7754 1.62312 17.2531 2.01835 16.609C2.41357 15.9648 2.62291 15.2239 2.62319 14.4681C2.62347 13.7124 2.41469 12.9713 2.01995 12.3269C1.6252 11.6824 1.05988 11.1597 0.38652 10.8166C1.00378 8.58466 2.17907 6.54659 3.80166 4.89439C4.43539 5.30639 5.17075 5.53503 5.92637 5.55499C6.68199 5.57496 7.4284 5.38547 8.08299 5.0075C8.73759 4.62952 9.27485 4.07781 9.6353 3.41341C9.99576 2.74901 10.1654 1.99783 10.1253 1.24301C12.3677 0.663516 14.7206 0.664456 16.9625 1.24574C16.9228 2.00055 17.0927 2.75161 17.4535 3.41582C17.8142 4.08003 18.3517 4.63149 19.0064 5.00917C19.6611 5.38685 20.4076 5.57603 21.1632 5.55577C21.9187 5.53552 22.654 5.30661 23.2875 4.89439C24.0781 5.70004 24.78 6.6163 25.3699 7.63907C25.9612 8.66183 26.4036 9.7283 26.7054 10.8152C26.0318 11.1579 25.4661 11.6801 25.0708 12.3243C24.6756 12.9684 24.4663 13.7094 24.466 14.4651C24.4657 15.2208 24.6745 15.9619 25.0692 16.6064C25.464 17.2508 26.0293 17.7735 26.7027 18.1166C26.0854 20.3486 24.9101 22.3867 23.2875 24.0389C22.6538 23.6269 21.9184 23.3982 21.1628 23.3783C20.4072 23.3583 19.6608 23.5478 19.0062 23.9258C18.3516 24.3037 17.8143 24.8554 17.4539 25.5198C17.0934 26.1842 16.9238 26.9354 16.9638 27.6902C14.7215 28.2697 12.3686 28.2688 10.1267 27.6875C10.1664 26.9327 9.99644 26.1816 9.6357 25.5174C9.27497 24.8532 8.7375 24.3018 8.08278 23.9241C7.42805 23.5464 6.6816 23.3572 5.92603 23.3775C5.17045 23.3977 4.43521 23.6266 3.80166 24.0389C2.99463 23.2154 2.29495 22.2932 1.71926 21.2942ZM9.44806 21.5618C10.9032 22.4011 11.9973 23.748 12.5205 25.3443C13.2018 25.4085 13.886 25.4098 14.5674 25.3457C15.0909 23.7492 16.1855 22.4022 17.6411 21.5632C19.0957 20.7216 20.8098 20.4469 22.4546 20.7917C22.8506 20.2345 23.1919 19.6405 23.476 19.0192C22.3555 17.7677 21.7365 16.1465 21.7377 14.4666C21.7377 12.7461 22.3795 11.1389 23.476 9.91401C23.1899 9.2929 22.8471 8.69957 22.4518 8.14157C20.8081 8.4861 19.0951 8.21187 17.6411 7.37143C16.186 6.53214 15.0919 5.18522 14.5687 3.58896C13.8873 3.52478 13.2032 3.52341 12.5218 3.58759C11.9983 5.18408 10.9037 6.53103 9.44806 7.37006C7.99349 8.21164 6.27935 8.48639 4.63463 8.14157C4.2394 8.69909 3.89743 9.29251 3.61322 9.91401C4.73372 11.1656 5.35273 12.7868 5.35152 14.4666C5.35152 16.1872 4.70973 17.7944 3.61322 19.0192C3.89926 19.6403 4.2421 20.2337 4.63736 20.7917C6.28105 20.4471 7.99407 20.7214 9.44806 21.5618ZM13.5446 18.5632C12.4581 18.5632 11.4162 18.1316 10.6479 17.3633C9.87965 16.5951 9.44806 15.5531 9.44806 14.4666C9.44806 13.3802 9.87965 12.3382 10.6479 11.5699C11.4162 10.8017 12.4581 10.3701 13.5446 10.3701C14.6311 10.3701 15.673 10.8017 16.4413 11.5699C17.2095 12.3382 17.6411 13.3802 17.6411 14.4666C17.6411 15.5531 17.2095 16.5951 16.4413 17.3633C15.673 18.1316 14.6311 18.5632 13.5446 18.5632ZM13.5446 15.8321C13.9067 15.8321 14.2541 15.6883 14.5102 15.4322C14.7662 15.1761 14.9101 14.8288 14.9101 14.4666C14.9101 14.1045 14.7662 13.7571 14.5102 13.5011C14.2541 13.245 13.9067 13.1011 13.5446 13.1011C13.1824 13.1011 12.8351 13.245 12.579 13.5011C12.3229 13.7571 12.1791 14.1045 12.1791 14.4666C12.1791 14.8288 12.3229 15.1761 12.579 15.4322C12.8351 15.6883 13.1824 15.8321 13.5446 15.8321Z" fill="white"/>
</svg>
