<svg width="27" height="27" viewBox="0 0 27 27" fill="none" xmlns="http://www.w3.org/2000/svg">
<path d="M13.5204 26.072C6.45006 26.072 0.71875 20.3407 0.71875 13.2703C0.71875 7.53771 4.48628 2.68588 9.67992 1.05494V3.77402C7.47922 4.66763 5.65738 6.29813 4.52604 8.38661C3.39471 10.4751 3.02418 12.8918 3.47784 15.2233C3.93149 17.5547 5.18114 19.6562 7.01303 21.1681C8.84492 22.68 11.1452 23.5084 13.5204 23.5116C15.5607 23.5116 17.5546 22.9023 19.2464 21.762C20.9383 20.6216 22.2511 19.002 23.0167 17.1108H25.7358C24.1048 22.3044 19.253 26.072 13.5204 26.072ZM26.2581 14.5505H12.2403V0.532636C12.6614 0.490391 13.089 0.468628 13.5204 0.468628C20.5908 0.468628 26.3221 6.19994 26.3221 13.2703C26.3221 13.7017 26.3003 14.1293 26.2581 14.5505ZM14.8006 3.10833V11.9901H23.6824C23.3974 9.73397 22.37 7.63671 20.762 6.02869C19.154 4.42068 17.0567 3.39328 14.8006 3.10833Z" fill="white"/>
</svg>
