<svg width="27" height="27" viewBox="0 0 27 27" fill="none" xmlns="http://www.w3.org/2000/svg">
<path d="M19.9213 3.40445L25.0419 3.40445C25.3814 3.40445 25.7071 3.53932 25.9471 3.7794C26.1872 4.01948 26.3221 4.3451 26.3221 4.68462V25.1673C26.3221 25.5068 26.1872 25.8324 25.9471 26.0725C25.7071 26.3126 25.3814 26.4475 25.0419 26.4475H1.99892C1.6594 26.4475 1.33378 26.3126 1.0937 26.0725C0.853624 25.8324 0.71875 25.5068 0.71875 25.1673L0.71875 4.68462C0.71875 4.3451 0.853624 4.01948 1.0937 3.7794C1.33378 3.53932 1.6594 3.40445 1.99892 3.40445H7.11959V0.844116L9.67992 0.844116V3.40445H17.3609V0.844116L19.9213 0.844116V3.40445ZM3.27908 11.0855L3.27908 23.8871H23.7618V11.0855H3.27908ZM5.83942 16.2061H12.2403V21.3268H5.83942V16.2061Z" fill="white"/>
</svg>
