<svg width="32" height="34" viewBox="0 0 32 34" fill="none" xmlns="http://www.w3.org/2000/svg">
<g clip-path="url(#clip0_77_2081)">
<path d="M31.5 17.3656C31.5 16.0128 31.3945 15.0257 31.1661 14.002H16.3163V20.1077H25.0328C24.8571 21.6251 23.9082 23.9102 21.7993 25.4457L21.7697 25.6501L26.4649 29.4339L26.7902 29.4676C29.7777 26.5975 31.5 22.3746 31.5 17.3656Z" fill="black"/>
<path d="M16.3163 33.4529C20.5867 33.4529 24.1717 31.9903 26.7902 29.4676L21.7993 25.4457C20.4637 26.4146 18.6711 27.091 16.3163 27.091C12.1338 27.091 8.58395 24.221 7.31853 20.254L7.13304 20.2704L2.25088 24.2008L2.18703 24.3855C4.78791 29.76 10.1303 33.4529 16.3163 33.4529Z" fill="black"/>
<path d="M7.31853 20.2541C6.98463 19.2303 6.7914 18.1334 6.7914 17C6.7914 15.8665 6.98463 14.7697 7.30096 13.746L7.29212 13.528L2.34877 9.53442L2.18703 9.61445C1.11509 11.8448 0.5 14.3493 0.5 17C0.5 19.6508 1.11509 22.1552 2.18703 24.3855L7.31853 20.2541Z" fill="black"/>
<path d="M16.3163 6.90885C19.2862 6.90885 21.2896 8.24335 22.4319 9.35857L26.8956 4.82486C24.1542 2.17413 20.5867 0.547119 16.3163 0.547119C10.1303 0.547119 4.78791 4.23984 2.18703 9.6144L7.30096 13.746C8.58395 9.77899 12.1338 6.90885 16.3163 6.90885Z" fill="black"/>
</g>
<defs>
<clipPath id="clip0_77_2081">
<rect width="31" height="33" fill="white" transform="translate(0.5 0.5)"/>
</clipPath>
</defs>
</svg>
