<svg width="25" height="24" viewBox="0 0 25 24" fill="none" xmlns="http://www.w3.org/2000/svg">
<rect x="0.586914" y="0.00195312" width="24" height="24" rx="5" fill="#F2F1FA"/>
<path d="M6.58691 7.61528C6.58691 7.23047 6.72205 6.91301 6.99232 6.6629C7.26259 6.41278 7.61394 6.28772 8.04637 6.28772C8.47109 6.28772 8.81471 6.41085 9.07726 6.65713C9.34753 6.9111 9.48267 7.24202 9.48267 7.64991C9.48267 8.01932 9.3514 8.32715 9.08884 8.57343C8.81858 8.8274 8.46336 8.95439 8.02321 8.95439H8.01162C7.58691 8.95439 7.24329 8.8274 6.98074 8.57343C6.71818 8.31946 6.58691 8.00008 6.58691 7.61528ZM6.73749 17.7163V10.0049H9.30892V17.7163H6.73749ZM10.7336 17.7163H13.3051V13.4104C13.3051 13.141 13.336 12.9332 13.3977 12.787C13.5058 12.5253 13.6699 12.3041 13.89 12.1232C14.1101 11.9424 14.3861 11.8519 14.7182 11.8519C15.5831 11.8519 16.0155 12.433 16.0155 13.5951V17.7163H18.5869V13.2949C18.5869 12.1559 18.3166 11.292 17.7761 10.7033C17.2356 10.1146 16.5213 9.82019 15.6332 9.82019C14.6371 9.82019 13.861 10.2473 13.3051 11.1016V11.1247H13.2935L13.3051 11.1016V10.0049H10.7336C10.7491 10.2512 10.7568 11.0169 10.7568 12.3021C10.7568 13.5874 10.7491 15.3921 10.7336 17.7163Z" fill="#555555"/>
</svg>
