<svg width="30" height="23" viewBox="0 0 30 23" fill="none" xmlns="http://www.w3.org/2000/svg">
<path d="M27.905 9.70831H1.63465C0.778542 9.70831 0.0845337 10.4704 0.0845337 11.4104V11.5896C0.0845337 12.5296 0.778542 13.2916 1.63465 13.2916H27.905C28.7611 13.2916 29.4551 12.5296 29.4551 11.5896V11.4104C29.4551 10.4704 28.7611 9.70831 27.905 9.70831Z" fill="#525151"/>
<path d="M27.905 18.6666H1.63465C0.778542 18.6666 0.0845337 19.4287 0.0845337 20.3687V20.5479C0.0845337 21.4879 0.778542 22.25 1.63465 22.25H27.905C28.7611 22.25 29.4551 21.4879 29.4551 20.5479V20.3687C29.4551 19.4287 28.7611 18.6666 27.905 18.6666Z" fill="#525151"/>
<path d="M27.905 0.75H1.63465C0.778542 0.75 0.0845337 1.51205 0.0845337 2.45208V2.63125C0.0845337 3.57129 0.778542 4.33333 1.63465 4.33333H27.905C28.7611 4.33333 29.4551 3.57129 29.4551 2.63125V2.45208C29.4551 1.51205 28.7611 0.75 27.905 0.75Z" fill="#525151"/>
</svg>
