<svg width="53" height="53" viewBox="0 0 53 53" fill="none" xmlns="http://www.w3.org/2000/svg">
<path d="M26.6673 47.6977H26.4505C23.477 47.675 20.538 47.0593 17.8054 45.8866C15.0728 44.7139 12.6017 43.0078 10.5367 40.8682C6.70755 36.7733 4.53086 31.4051 4.42677 25.7998C4.32267 20.1944 6.29853 14.7492 9.97303 10.5149C12.3403 7.8619 15.3164 5.82332 18.6454 4.57433C19.0338 4.42485 19.4571 4.39035 19.8646 4.47493C20.2721 4.55951 20.6467 4.7596 20.9436 5.05131C21.2185 5.33169 21.4122 5.68148 21.5038 6.06334C21.5954 6.44519 21.5817 6.84477 21.4639 7.2194C20.2757 10.4736 20.0403 13.9991 20.7853 17.3824C21.5303 20.7656 23.2248 23.8662 25.67 26.3203C28.138 28.758 31.2459 30.4467 34.634 31.1911C38.0221 31.9355 41.5517 31.705 44.8143 30.5264C45.2026 30.3897 45.6218 30.3664 46.0229 30.4592C46.424 30.552 46.7903 30.757 47.0791 31.0504C47.368 31.3438 47.5673 31.7133 47.6538 32.1158C47.7403 32.5183 47.7105 32.9371 47.5677 33.3232C46.4602 36.2799 44.73 38.9639 42.4944 41.1934C40.4148 43.2667 37.9461 44.9087 35.2299 46.0249C32.5138 47.1411 29.6039 47.7096 26.6673 47.6977ZM16.1738 10.6667C15.0847 11.4305 14.0879 12.3181 13.2035 13.3117C10.2214 16.7289 8.61455 21.1319 8.69466 25.6666C8.77478 30.2014 10.5361 34.5448 13.6371 37.8545C15.3033 39.5851 17.2996 40.964 19.5078 41.9099C21.7161 42.8558 24.0916 43.3493 26.4939 43.3615H26.6673C29.5426 43.3598 32.3761 42.6725 34.9326 41.3566C37.4891 40.0406 39.6949 38.134 41.367 35.7948C37.9595 36.2364 34.4961 35.891 31.2429 34.7854C27.9897 33.6797 25.0332 31.8431 22.6005 29.4166C20.1677 26.9902 18.3235 24.0384 17.2094 20.7881C16.0953 17.5377 15.7411 14.0753 16.1738 10.6667Z" fill="#231F20"/>
</svg>
