<svg width="20" height="22" viewBox="0 0 20 22" fill="none" xmlns="http://www.w3.org/2000/svg">
<path d="M9.9642 21.8904C10.6248 21.8913 11.2692 21.6863 11.8079 21.304C12.3466 20.9216 12.7528 20.381 12.97 19.7571H6.95835C7.17559 20.381 7.58179 20.9216 8.12049 21.304C8.65918 21.6863 9.30362 21.8913 9.9642 21.8904V21.8904ZM17.4308 13.9822V9.09053C17.4308 5.65908 15.1002 2.76844 11.9429 1.89911C11.6303 1.11191 10.8666 0.557251 9.9642 0.557251C9.0618 0.557251 8.29807 1.11191 7.98554 1.89911C4.82823 2.7695 2.49758 5.65908 2.49758 9.09053V13.9822L0.67679 15.803C0.577545 15.9019 0.498839 16.0194 0.445202 16.1489C0.391564 16.2783 0.364056 16.417 0.364259 16.5571L0.364259 17.6238C0.364259 17.9067 0.476639 18.178 0.676676 18.3781C0.876714 18.5781 1.14802 18.6905 1.43092 18.6905H18.4975C18.7804 18.6905 19.0517 18.5781 19.2517 18.3781C19.4518 18.178 19.5641 17.9067 19.5641 17.6238V16.5571C19.5643 16.417 19.5368 16.2783 19.4832 16.1489C19.4296 16.0194 19.3509 15.9019 19.2516 15.803L17.4308 13.9822Z" fill="#0D0D0D" fill-opacity="0.75"/>
</svg>
