<svg width="35" height="33" viewBox="0 0 35 33" fill="none" xmlns="http://www.w3.org/2000/svg">
<path d="M34.3284 29.5613L27.8718 23.4875C29.9549 20.9836 31.0853 17.8915 31.0811 14.7083C31.0811 11.8735 30.1901 9.10227 28.5208 6.74517C26.8514 4.38806 24.4788 2.55092 21.7028 1.46607C18.9268 0.38121 15.8722 0.0973626 12.9252 0.650417C9.97827 1.20347 7.27131 2.56859 5.14667 4.57314C3.02203 6.5777 1.57513 9.13165 0.988939 11.912C0.402751 14.6924 0.703604 17.5744 1.85345 20.1935C3.0033 22.8125 4.9505 25.0511 7.44882 26.6261C9.94713 28.201 12.8844 29.0417 15.8891 29.0417C19.2629 29.0456 22.5402 27.9792 25.1942 26.0138L31.6318 32.1054C31.8083 32.2734 32.0184 32.4066 32.2498 32.4976C32.4812 32.5886 32.7294 32.6354 32.9801 32.6354C33.2308 32.6354 33.479 32.5886 33.7104 32.4976C33.9418 32.4066 34.1518 32.2734 34.3284 32.1054C34.5064 31.9389 34.6476 31.7407 34.7441 31.5224C34.8405 31.304 34.8901 31.0699 34.8901 30.8333C34.8901 30.5968 34.8405 30.3626 34.7441 30.1443C34.6476 29.926 34.5064 29.7278 34.3284 29.5613ZM4.49503 14.7083C4.49503 12.5822 5.16328 10.5038 6.41527 8.73596C7.66726 6.96813 9.44677 5.59028 11.5288 4.77663C13.6107 3.96299 15.9017 3.75011 18.1119 4.1649C20.3221 4.57969 22.3524 5.60353 23.9458 7.10694C25.5393 8.61036 26.6245 10.5258 27.0641 12.6111C27.5038 14.6964 27.2781 16.8579 26.4158 18.8222C25.5534 20.7865 24.093 22.4654 22.2192 23.6466C20.3455 24.8279 18.1426 25.4583 15.8891 25.4583C12.8672 25.4583 9.96906 24.3258 7.83227 22.3097C5.69547 20.2937 4.49503 17.5594 4.49503 14.7083Z" fill="#525151"/>
</svg>
