<svg width="33" height="33" viewBox="0 0 33 33" fill="none" xmlns="http://www.w3.org/2000/svg">
<path d="M32.4561 29.1863L26.2251 23.1125C28.2355 20.6086 29.3264 17.5165 29.3223 14.3333C29.3223 11.4985 28.4625 8.72727 26.8515 6.37017C25.2405 4.01306 22.9507 2.17592 20.2717 1.09107C17.5928 0.00621036 14.6449 -0.277637 11.8009 0.275417C8.95693 0.828472 6.34456 2.19359 4.29416 4.19814C2.24376 6.2027 0.84742 8.75665 0.281717 11.537C-0.283987 14.3174 0.0063524 17.1994 1.11602 19.8185C2.22569 22.4375 4.10485 24.6761 6.51586 26.2511C8.92687 27.826 11.7615 28.6667 14.6612 28.6667C17.9171 28.6706 21.0799 27.6042 23.6411 25.6388L29.8538 31.7304C30.0241 31.8984 30.2268 32.0316 30.4502 32.1226C30.6735 32.2136 30.913 32.2604 31.155 32.2604C31.3969 32.2604 31.6364 32.2136 31.8597 32.1226C32.0831 32.0316 32.2858 31.8984 32.4561 31.7304C32.6279 31.5639 32.7642 31.3657 32.8573 31.1474C32.9503 30.929 32.9982 30.6949 32.9982 30.4583C32.9982 30.2218 32.9503 29.9876 32.8573 29.7693C32.7642 29.551 32.6279 29.3528 32.4561 29.1863ZM3.66529 14.3333C3.66529 12.2072 4.31019 10.1288 5.51843 8.36096C6.72667 6.59313 8.44399 5.21528 10.4532 4.40163C12.4625 3.58799 14.6734 3.37511 16.8063 3.7899C18.9393 4.20469 20.8986 5.22853 22.4364 6.73194C23.9742 8.23536 25.0215 10.1508 25.4457 12.2361C25.87 14.3214 25.6523 16.4829 24.82 18.4472C23.9878 20.4115 22.5784 22.0904 20.7701 23.2716C18.9619 24.4529 16.8359 25.0833 14.6612 25.0833C11.7449 25.0833 8.94803 23.9508 6.88591 21.9347C4.82378 19.9187 3.66529 17.1844 3.66529 14.3333Z" fill="#E82A75"/>
</svg>
