<svg width="55" height="55" viewBox="0 0 55 55" fill="none" xmlns="http://www.w3.org/2000/svg">
<g clip-path="url(#clip0_77_1531)">
<path d="M54.6122 40.4544C54.166 40.0906 53.5072 40.1582 53.141 40.6016C52.9875 40.7853 49.3065 45.049 40.8426 40.3474C30.971 34.8616 24.3168 39.158 24.0385 39.3437C23.5586 39.6634 23.4297 40.3095 23.747 40.7909C24.0662 41.2728 24.7148 41.4058 25.1967 41.0896C25.4351 40.9346 31.1203 37.3427 39.8257 42.1787C43.1569 44.0295 45.8957 44.6556 48.079 44.6556C52.5058 44.6556 54.642 42.0795 54.772 41.9173C55.1309 41.4687 55.0583 40.8175 54.6122 40.4544Z" fill="black"/>
<path d="M54.6122 46.741C54.166 46.3778 53.5072 46.4449 53.141 46.8883C52.9875 47.072 49.3065 51.3357 40.8426 46.634C30.971 41.1493 24.3168 45.4447 24.0385 45.6304C23.5586 45.9501 23.4297 46.5962 23.747 47.0776C24.0662 47.56 24.7148 47.6914 25.1967 47.3763C25.4351 47.2208 31.1203 43.6298 39.8257 48.4654C43.1569 50.3161 45.8957 50.9423 48.079 50.9423C52.5058 50.9423 54.642 48.3662 54.772 48.204C55.1309 47.7554 55.0583 47.1042 54.6122 46.741Z" fill="black"/>
<path d="M28.7146 12.4395C18.8941 12.4395 10.9048 20.4286 10.9048 30.2492C10.9048 36.9479 14.6063 43.0168 20.5647 46.0886C20.7182 46.1679 20.8819 46.2053 21.0435 46.2053C21.423 46.2053 21.7893 45.9986 21.9755 45.6374C22.2405 45.1233 22.039 44.4916 21.5243 44.2266C16.2667 41.5154 12.9999 36.1601 12.9999 30.2492C12.9999 21.5843 20.049 14.5347 28.7145 14.5347C37.38 14.5347 44.429 21.5843 44.429 30.2492C44.429 31.4565 44.2919 32.656 44.0228 33.8152C43.8908 34.3784 44.2418 34.9417 44.8055 35.0731C45.3661 35.2015 45.9319 34.8537 46.0629 34.2899C46.3688 32.9753 46.5243 31.6161 46.5243 30.2492C46.5244 20.4287 38.5351 12.4395 28.7146 12.4395Z" fill="black"/>
<path d="M52.3818 29.7109H48.1912C47.6121 29.7109 47.1436 30.18 47.1436 30.7586C47.1436 31.3372 47.6121 31.8063 48.1912 31.8063H52.3818C52.9609 31.8063 53.4295 31.3372 53.4295 30.7586C53.4295 30.18 52.9608 29.7109 52.3818 29.7109Z" fill="black"/>
<path d="M45.6047 11.8812C45.1955 11.4719 44.5326 11.4719 44.1233 11.8812L41.1605 14.8445C40.7512 15.2538 40.7512 15.9172 41.1605 16.326C41.3651 16.5306 41.6331 16.6329 41.9011 16.6329C42.1692 16.6329 42.4373 16.5306 42.6418 16.326L45.6046 13.3626C46.014 12.9534 46.014 12.2899 45.6047 11.8812Z" fill="black"/>
<path d="M26.8363 4.05859C26.2573 4.05859 25.7886 4.52771 25.7886 5.10628V9.29681C25.7886 9.87538 26.2571 10.3445 26.8363 10.3445C27.4154 10.3445 27.8839 9.87538 27.8839 9.29681V5.10628C27.8839 4.52771 27.4154 4.05859 26.8363 4.05859Z" fill="black"/>
<path d="M12.2688 14.8445L9.30599 11.8812C8.89671 11.4719 8.23381 11.4719 7.82454 11.8812C7.41526 12.2899 7.41526 12.9534 7.82454 13.3626L10.7873 16.326C10.992 16.5306 11.26 16.6329 11.5281 16.6329C11.7961 16.6329 12.0642 16.5306 12.2688 16.326C12.6781 15.9172 12.6781 15.2538 12.2688 14.8445Z" fill="black"/>
<path d="M12.2688 45.2171C11.8595 44.8078 11.1966 44.8078 10.7873 45.2171L7.82454 48.1805C7.41526 48.5897 7.41526 49.2532 7.82454 49.6619C8.02917 49.8665 8.29719 49.9688 8.56532 49.9688C8.83334 49.9688 9.10135 49.8665 9.30599 49.6619L12.2688 46.6986C12.6781 46.2894 12.6781 45.6259 12.2688 45.2171Z" fill="black"/>
<path d="M5.23821 29.7109H1.04769C0.468682 29.7109 0 30.18 0 30.7586C0 31.3372 0.468574 31.8063 1.04769 31.8063H5.23821C5.81732 31.8063 6.2859 31.3372 6.2859 30.7586C6.2859 30.18 5.81722 29.7109 5.23821 29.7109Z" fill="black"/>
</g>
<defs>
<clipPath id="clip0_77_1531">
<rect width="55" height="55" fill="white"/>
</clipPath>
</defs>
</svg>
