<svg width="47" height="47" viewBox="0 0 47 47" fill="none" xmlns="http://www.w3.org/2000/svg">
<path d="M23.5172 9.7583C24.1254 9.7583 24.7086 9.51671 25.1387 9.08667C25.5687 8.65663 25.8103 8.07337 25.8103 7.46521V2.87903C25.8103 2.27086 25.5687 1.68761 25.1387 1.25757C24.7086 0.82753 24.1254 0.585938 23.5172 0.585938C22.909 0.585938 22.3258 0.82753 21.8958 1.25757C21.4657 1.68761 21.2241 2.27086 21.2241 2.87903V7.46521C21.2241 8.07337 21.4657 8.65663 21.8958 9.08667C22.3258 9.51671 22.909 9.7583 23.5172 9.7583Z" fill="#E82A75"/>
<path d="M44.1552 21.2246H39.569C38.9608 21.2246 38.3775 21.4662 37.9475 21.8962C37.5175 22.3263 37.2759 22.9095 37.2759 23.5177C37.2759 24.1259 37.5175 24.7091 37.9475 25.1392C38.3775 25.5692 38.9608 25.8108 39.569 25.8108H44.1552C44.7633 25.8108 45.3466 25.5692 45.7766 25.1392C46.2066 24.7091 46.4482 24.1259 46.4482 23.5177C46.4482 22.9095 46.2066 22.3263 45.7766 21.8962C45.3466 21.4662 44.7633 21.2246 44.1552 21.2246Z" fill="#E82A75"/>
<path d="M9.75879 23.5177C9.75879 22.9095 9.51719 22.3263 9.08716 21.8962C8.65712 21.4662 8.07386 21.2246 7.4657 21.2246H2.87952C2.27135 21.2246 1.68809 21.4662 1.25806 21.8962C0.828018 22.3263 0.586426 22.9095 0.586426 23.5177C0.586426 24.1259 0.828018 24.7091 1.25806 25.1392C1.68809 25.5692 2.27135 25.8108 2.87952 25.8108H7.4657C8.07386 25.8108 8.65712 25.5692 9.08716 25.1392C9.51719 24.7091 9.75879 24.1259 9.75879 23.5177Z" fill="#E82A75"/>
<path d="M10.2634 7.46425C9.81639 7.04158 9.21979 6.81378 8.60483 6.83099C7.98988 6.84819 7.40695 7.10897 6.98427 7.55598C6.5616 8.00298 6.3338 8.59958 6.35101 9.21453C6.36821 9.82949 6.62899 10.4124 7.076 10.8351L10.378 14.0225C10.5996 14.2365 10.8621 14.4036 11.1497 14.5139C11.4373 14.6242 11.7442 14.6755 12.052 14.6646C12.3609 14.6634 12.6664 14.5998 12.9501 14.4776C13.2338 14.3555 13.4899 14.1773 13.703 13.9537C14.1301 13.5241 14.3698 12.9429 14.3698 12.3371C14.3698 11.7313 14.1301 11.1501 13.703 10.7204L10.2634 7.46425Z" fill="#E82A75"/>
<path d="M34.983 14.6651C35.5734 14.6627 36.1401 14.4328 36.5652 14.023L39.8673 10.8356C40.2701 10.4147 40.4976 9.8563 40.5036 9.27373C40.5096 8.69117 40.2936 8.12817 39.8996 7.69907C39.5055 7.26997 38.9629 7.00695 38.3819 6.96344C37.8009 6.91993 37.2252 7.09918 36.7716 7.46478L33.4695 10.721C33.0425 11.1506 32.8027 11.7318 32.8027 12.3376C32.8027 12.9434 33.0425 13.5246 33.4695 13.9542C33.8666 14.3732 34.407 14.6271 34.983 14.6651Z" fill="#E82A75"/>
<path d="M23.5172 37.2754C22.909 37.2754 22.3258 37.517 21.8958 37.947C21.4657 38.3771 21.2241 38.9603 21.2241 39.5685V44.1547C21.2241 44.7628 21.4657 45.3461 21.8958 45.7761C22.3258 46.2062 22.909 46.4478 23.5172 46.4478C24.1254 46.4478 24.7086 46.2062 25.1387 45.7761C25.5687 45.3461 25.8103 44.7628 25.8103 44.1547V39.5685C25.8103 38.9603 25.5687 38.3771 25.1387 37.947C24.7086 37.517 24.1254 37.2754 23.5172 37.2754Z" fill="#E82A75"/>
<path d="M36.656 33.0109C36.2181 32.5882 35.6303 32.3568 35.0218 32.3675C34.4133 32.3783 33.834 32.6303 33.4113 33.0682C32.9886 33.5061 32.7572 34.0939 32.7679 34.7024C32.7787 35.311 33.0307 35.8903 33.4686 36.3129L36.7707 39.5691C37.1957 39.9789 37.7625 40.2088 38.3529 40.2112C38.6601 40.213 38.9646 40.153 39.2482 40.0348C39.5319 39.9167 39.7888 39.7427 40.0039 39.5233C40.2188 39.3101 40.3894 39.0565 40.5058 38.777C40.6223 38.4976 40.6822 38.1979 40.6822 37.8952C40.6822 37.5925 40.6223 37.2927 40.5058 37.0133C40.3894 36.7339 40.2188 36.4802 40.0039 36.2671L36.656 33.0109Z" fill="#E82A75"/>
<path d="M10.3778 33.0105L7.07575 36.1978C6.86083 36.411 6.69023 36.6646 6.57382 36.9441C6.4574 37.2235 6.39746 37.5232 6.39746 37.8259C6.39746 38.1287 6.4574 38.4284 6.57382 38.7078C6.69023 38.9872 6.86083 39.2409 7.07575 39.454C7.29083 39.6735 7.54781 39.8474 7.83143 39.9656C8.11505 40.0838 8.41953 40.1438 8.72678 40.142C9.29206 40.1468 9.8392 39.9426 10.2631 39.5687L13.5652 36.3813C14.0031 35.9586 14.2551 35.3793 14.2659 34.7708C14.2766 34.1623 14.0452 33.5745 13.6225 33.1366C13.1999 32.6987 12.6205 32.4467 12.012 32.4359C11.4035 32.4252 10.8157 32.6566 10.3778 33.0792V33.0105Z" fill="#E82A75"/>
<path d="M23.5171 14.3438C21.703 14.3438 19.9296 14.8817 18.4212 15.8896C16.9128 16.8974 15.7372 18.33 15.0429 20.006C14.3487 21.682 14.1671 23.5263 14.521 25.3056C14.8749 27.0848 15.7485 28.7192 17.0313 30.002C18.314 31.2847 19.9484 32.1583 21.7277 32.5122C23.5069 32.8661 25.3512 32.6845 27.0272 31.9903C28.7032 31.296 30.1358 30.1204 31.1436 28.612C32.1515 27.1036 32.6895 25.3302 32.6895 23.5161C32.6895 21.0835 31.7231 18.7504 30.0029 17.0303C28.2828 15.3101 25.9498 14.3438 23.5171 14.3438ZM23.5171 28.1023C22.61 28.1023 21.7233 27.8333 20.9691 27.3294C20.215 26.8254 19.6271 26.1092 19.28 25.2712C18.9329 24.4332 18.8421 23.511 19.019 22.6214C19.196 21.7318 19.6328 20.9146 20.2742 20.2732C20.9156 19.6318 21.7327 19.195 22.6224 19.0181C23.512 18.8411 24.4341 18.9319 25.2722 19.279C26.1102 19.6262 26.8264 20.214 27.3304 20.9682C27.8343 21.7224 28.1033 22.6091 28.1033 23.5161C28.1033 24.7324 27.6201 25.899 26.76 26.759C25.8999 27.6191 24.7334 28.1023 23.5171 28.1023Z" fill="#E82A75"/>
</svg>
