<svg width="25" height="24" viewBox="0 0 25 24" fill="none" xmlns="http://www.w3.org/2000/svg">
<rect x="0.586914" y="0.00195312" width="24" height="24" rx="5" fill="#F2F1FA"/>
<path d="M14.6049 7.13619V7.13403H15.1676L15.3732 7.17509C15.5103 7.20175 15.6347 7.23669 15.7465 7.27991C15.8583 7.32313 15.9665 7.37356 16.0711 7.43119C16.1757 7.48881 16.2706 7.54753 16.3557 7.60732C16.4401 7.66639 16.5159 7.72907 16.583 7.79534C16.6493 7.86233 16.7528 7.87962 16.8935 7.8472C17.0342 7.81479 17.1857 7.76976 17.348 7.71213C17.5103 7.65451 17.6708 7.58967 17.8295 7.51763C17.9882 7.44559 18.0849 7.39985 18.1195 7.3804C18.1534 7.36024 18.1714 7.34943 18.1736 7.34798L18.1757 7.34474L18.1866 7.33934L18.1974 7.33394L18.2082 7.32853L18.219 7.32313L18.2212 7.31989L18.2244 7.31773L18.2277 7.31557L18.2298 7.31233L18.2407 7.30908L18.2515 7.30692L18.2493 7.32313L18.2461 7.33934L18.2407 7.35555L18.2352 7.37176L18.2298 7.38256L18.2244 7.39337L18.219 7.40958C18.2154 7.42038 18.2118 7.43479 18.2082 7.4528C18.2046 7.47081 18.1703 7.54284 18.1054 7.66891C18.0405 7.79498 17.9593 7.92284 17.8619 8.05251C17.7646 8.18218 17.6773 8.28014 17.6001 8.34642C17.5222 8.41342 17.4706 8.46024 17.4453 8.48689C17.4201 8.51427 17.3894 8.53947 17.3534 8.56253L17.2993 8.59819L17.2884 8.6036L17.2776 8.609L17.2755 8.61224L17.2722 8.6144L17.269 8.61656L17.2668 8.6198L17.256 8.62521L17.2452 8.63061L17.243 8.63385L17.2398 8.63601L17.2365 8.63817L17.2343 8.64141L17.2322 8.64466L17.2289 8.64682L17.2257 8.64898L17.2235 8.65222H17.2776L17.5806 8.58739C17.7826 8.54416 17.9756 8.49194 18.1595 8.43071L18.4517 8.33346L18.4841 8.32265L18.5003 8.31725L18.5112 8.31184L18.522 8.30644L18.5328 8.30104L18.5436 8.29564L18.5653 8.29239L18.5869 8.29023V8.31184L18.5815 8.31401L18.5761 8.31725L18.5739 8.32049L18.5707 8.32265L18.5674 8.32481L18.5653 8.32805L18.5631 8.33129L18.5599 8.33346L18.5566 8.33562L18.5545 8.33886L18.5523 8.3421L18.549 8.34426L18.5436 8.35507L18.5382 8.36587L18.535 8.36803C18.5335 8.37019 18.4877 8.43142 18.3976 8.55173C18.3074 8.67275 18.2587 8.73398 18.2515 8.73542C18.2443 8.73758 18.2342 8.74839 18.2212 8.76784C18.2089 8.788 18.1325 8.86833 17.9918 9.00881C17.8511 9.14928 17.7133 9.27426 17.5784 9.38376C17.4428 9.49398 17.3743 9.6294 17.3729 9.79005C17.3707 9.94997 17.3624 10.1308 17.348 10.3325C17.3335 10.5342 17.3065 10.7521 17.2668 10.9862C17.2271 11.2204 17.1658 11.4851 17.0829 11.7804C16.9999 12.0758 16.8989 12.3639 16.7799 12.6449C16.6609 12.9258 16.5364 13.178 16.4066 13.4013C16.2767 13.6246 16.1577 13.8137 16.0495 13.9686C15.9413 14.1235 15.8313 14.2693 15.7195 14.4062C15.6077 14.5431 15.4663 14.6972 15.2953 14.8687C15.1236 15.0394 15.0299 15.1331 15.014 15.1496C14.9974 15.1655 14.9267 15.2246 14.8019 15.3268C14.6778 15.4299 14.5444 15.5329 14.4015 15.6359C14.2594 15.7382 14.1288 15.8235 14.0098 15.892C13.8908 15.9604 13.7472 16.0386 13.5792 16.1265C13.4118 16.2151 13.2307 16.2972 13.036 16.3728C12.8412 16.4485 12.6356 16.5187 12.4192 16.5835C12.2028 16.6484 11.9936 16.6988 11.7916 16.7348C11.5896 16.7708 11.3606 16.8015 11.1045 16.8267L10.7204 16.8645V16.8699H10.017V16.8645L9.92506 16.8591C9.86375 16.8555 9.81325 16.8519 9.77357 16.8483C9.7339 16.8447 9.58421 16.8249 9.32452 16.7888C9.06482 16.7528 8.86104 16.7168 8.71315 16.6808C8.56528 16.6448 8.34525 16.5763 8.0531 16.4755C7.76094 16.3746 7.51099 16.2727 7.30324 16.1697C7.09621 16.0674 6.96636 16.0025 6.91369 15.9752C6.86176 15.9485 6.80333 15.9154 6.7384 15.8758L6.64102 15.8163L6.63886 15.8131L6.63561 15.8109L6.63236 15.8088L6.6302 15.8055L6.61938 15.8001L6.60856 15.7947L6.6064 15.7915L6.60314 15.7893L6.5999 15.7872L6.59773 15.7839L6.59558 15.7807L6.59232 15.7785H6.58691V15.7569L6.59773 15.7591L6.60856 15.7623L6.65725 15.7677C6.68971 15.7713 6.77808 15.7767 6.92235 15.7839C7.06663 15.7911 7.21992 15.7911 7.38223 15.7839C7.54453 15.7767 7.71046 15.7605 7.87997 15.7353C8.0495 15.7101 8.24968 15.6669 8.48051 15.6056C8.71136 15.5444 8.92344 15.4716 9.11677 15.3874C9.30938 15.3024 9.44643 15.239 9.52795 15.1972C9.60874 15.1561 9.73209 15.0798 9.89801 14.9681L10.1469 14.8006L10.149 14.7974L10.1523 14.7952L10.1555 14.793L10.1577 14.7898L10.1599 14.7866L10.1631 14.7844L10.1664 14.7822L10.1685 14.779L10.1793 14.7758L10.1902 14.7736L10.1923 14.7628L10.1956 14.752L10.1988 14.7498L10.201 14.7466L10.1144 14.7412C10.0567 14.7376 10.0008 14.734 9.9467 14.7304C9.89259 14.7268 9.80784 14.7106 9.69241 14.6817C9.577 14.6529 9.45257 14.6097 9.31911 14.5521C9.18566 14.4945 9.05581 14.426 8.92957 14.3468C8.80333 14.2675 8.71207 14.2016 8.6558 14.149C8.60026 14.0972 8.52812 14.0237 8.43939 13.9286C8.35139 13.8328 8.27492 13.7345 8.21 13.6336C8.14507 13.5328 8.08304 13.4164 8.0239 13.2846L7.93407 13.0879L7.92866 13.0717L7.92325 13.0555L7.92001 13.0447L7.91784 13.0339L7.93407 13.0361L7.9503 13.0393L8.06933 13.0555C8.14869 13.0663 8.27313 13.0699 8.44264 13.0663C8.61217 13.0627 8.72938 13.0555 8.79431 13.0447C8.85923 13.0339 8.89891 13.0267 8.91333 13.0231L8.93498 13.0177L8.96203 13.0123L8.98908 13.0069L8.99124 13.0036L8.99449 13.0015L8.99775 12.9993L8.9999 12.9961L8.97826 12.9907L8.95662 12.9853L8.93498 12.9799L8.91333 12.9745L8.89169 12.9691C8.87727 12.9655 8.85203 12.9583 8.81595 12.9474C8.77988 12.9366 8.6825 12.897 8.52379 12.8286C8.3651 12.7602 8.23886 12.6935 8.14507 12.6287C8.05106 12.5637 7.96142 12.4926 7.87672 12.4158C7.79232 12.338 7.69964 12.2379 7.59864 12.1154C7.49765 11.993 7.40748 11.8507 7.32812 11.6886C7.24878 11.5265 7.18926 11.3716 7.14958 11.224C7.11006 11.0771 7.08399 10.927 7.07169 10.7755L7.0522 10.5486L7.06302 10.5508L7.07384 10.554L7.08466 10.5594L7.09548 10.5648L7.1063 10.5702L7.11712 10.5756L7.28484 10.6513C7.39666 10.7017 7.53552 10.7449 7.70143 10.7809C7.86735 10.8169 7.96654 10.8368 7.999 10.8404L8.04769 10.8458H8.14507L8.14292 10.8425L8.13966 10.8404L8.13642 10.8382L8.13425 10.835L8.1321 10.8317L8.12884 10.8295L8.1256 10.8274L8.12343 10.8241L8.11261 10.8187L8.10179 10.8133L8.09964 10.8101L8.09638 10.8079L8.09314 10.8058L8.09097 10.8025L8.08015 10.7971L8.06933 10.7917L8.06718 10.7885C8.06501 10.787 8.03399 10.764 7.97411 10.7193C7.91495 10.6739 7.85292 10.6152 7.788 10.5432C7.72307 10.4712 7.65815 10.3955 7.59323 10.3163C7.52818 10.2369 7.47025 10.1519 7.4201 10.0624C7.36961 9.97231 7.31622 9.85776 7.25995 9.71873C7.20441 9.58042 7.16221 9.44103 7.13335 9.30056C7.1045 9.16008 7.08827 9.02142 7.08466 8.88454C7.08106 8.74767 7.08466 8.63061 7.09548 8.53336C7.1063 8.43611 7.12794 8.32625 7.1604 8.20379C7.19287 8.08133 7.23976 7.95166 7.30107 7.81479L7.39305 7.60948L7.39846 7.59327L7.40387 7.57706L7.40712 7.5749L7.40928 7.57166L7.41144 7.56842L7.41469 7.56626L7.41794 7.56842L7.4201 7.57166L7.42226 7.5749L7.42551 7.57706L7.42876 7.57922L7.43092 7.58247L7.43308 7.58571L7.43633 7.58787L7.44174 7.59867L7.44715 7.60948L7.45041 7.61164L7.45256 7.61488L7.59864 7.77697C7.69602 7.88502 7.81144 8.00569 7.94489 8.13895C8.07836 8.27222 8.15229 8.34138 8.16672 8.34642C8.18115 8.35218 8.19918 8.36875 8.22082 8.39613C8.24246 8.42279 8.3146 8.48654 8.43723 8.58739C8.55987 8.68824 8.72037 8.8053 8.91874 8.93857C9.11713 9.07183 9.33714 9.20331 9.5788 9.33297C9.82047 9.46264 10.0802 9.5797 10.3579 9.68416C10.6356 9.78861 10.8304 9.85705 10.9422 9.88946C11.054 9.92188 11.2452 9.9633 11.5157 10.0137C11.7862 10.0642 11.99 10.0966 12.127 10.111C12.2641 10.1254 12.3579 10.1337 12.4084 10.1358L12.4841 10.138L12.482 10.1218L12.4787 10.1056L12.4571 9.9705C12.4426 9.88046 12.4354 9.75439 12.4354 9.59231C12.4354 9.43022 12.4481 9.28075 12.4733 9.14388C12.4986 9.007 12.5364 8.86833 12.5869 8.72786C12.6374 8.58739 12.6868 8.47464 12.7352 8.38964C12.7842 8.30536 12.8484 8.20919 12.9278 8.10113C13.0071 7.99308 13.1099 7.88142 13.2361 7.76616C13.3624 7.6509 13.5067 7.54824 13.669 7.4582C13.8313 7.36816 13.981 7.29972 14.118 7.25289C14.2551 7.20607 14.3705 7.17545 14.4643 7.16105C14.5581 7.14664 14.6049 7.13836 14.6049 7.13619V7.13619Z" fill="#555555"/>
</svg>
