<svg width="25" height="27" viewBox="0 0 25 27" fill="none" xmlns="http://www.w3.org/2000/svg">
<path d="M4.27898 21.2953H6.83931V23.8556H22.2013V3.37296L6.83931 3.37296V5.93329H4.27898V2.09279C4.27898 1.75327 4.41385 1.42765 4.65393 1.18757C4.89401 0.947496 5.21962 0.812622 5.55915 0.812622L23.4815 0.812622C23.821 0.812622 24.1466 0.947496 24.3867 1.18757C24.6268 1.42765 24.7617 1.75327 24.7617 2.09279V25.1358C24.7617 25.4753 24.6268 25.8009 24.3867 26.041C24.1466 26.2811 23.821 26.416 23.4815 26.416H5.55915C5.21962 26.416 4.89401 26.2811 4.65393 26.041C4.41385 25.8009 4.27898 25.4753 4.27898 25.1358V21.2953ZM6.83931 12.3341H15.8005V14.8945H6.83931V18.735L0.438477 13.6143L6.83931 8.49362V12.3341Z" fill="white"/>
</svg>
