<svg width="25" height="24" viewBox="0 0 25 24" fill="none" xmlns="http://www.w3.org/2000/svg">
<rect x="0.586914" y="0.00195312" width="24" height="24" rx="5" fill="#F2F1FA"/>
<path d="M12.8794 16.6552L10.1712 16.6046C9.29442 16.587 8.4154 16.6222 7.55576 16.4395C6.24805 16.1665 6.15541 14.8279 6.05847 13.705C5.92489 12.1265 5.97661 10.5193 6.22868 8.95388C6.37098 8.07553 6.931 7.55142 7.79706 7.49438C10.7206 7.2874 13.6636 7.31193 16.5807 7.4085C16.8888 7.41735 17.199 7.46573 17.5028 7.52081C19.0023 7.78942 19.0389 9.30635 19.1361 10.5833C19.233 11.8735 19.1921 13.1702 19.0068 14.4516C18.8582 15.5125 18.5738 16.4022 17.3735 16.4881C15.8697 16.6004 14.4003 16.6908 12.8923 16.6621C12.8923 16.6552 12.8837 16.6552 12.8794 16.6552ZM11.2873 13.9693C12.4205 13.3043 13.5322 12.6505 14.659 11.99C13.5236 11.325 12.414 10.6712 11.2873 10.0107V13.9693Z" fill="#555555"/>
</svg>
